<svg width="63" height="63" viewBox="0 0 63 63" fill="none" xmlns="http://www.w3.org/2000/svg">
<path d="M54.8 5.5C54.8 5.5 51.4 6.5 51.2 6.5C50.8 6.6 50.5 7 50.5 7.5C50.5 8 50.8 8.3 51.2 8.5C51.4 8.5 54.8 9.5 54.8 9.5H54.9C55 9.5 55.1 9.5 55.2 9.4C55.3 9.3 55.4 9.2 55.4 9V6C55.4 5.8 55.3 5.7 55.2 5.6C55.1 5.5 54.9 5.5 54.8 5.5ZM54.4 8.4C52.3 7.8 51.6 7.6 51.4 7.6C51.6 7.5 52.3 7.4 54.4 6.8V8.4Z" fill="#EE2B2F"/>
<path d="M42.8 16.6L37.9 21.5H22.9C22.2 21.5 21.6 21.8 21.1 22.2L17.2 26.1L13.3 22.2C13.2 22.1 13.2 22.1 13.1 22C13.1 22 13 22 13 21.9C12.9 21.8 12.8 21.8 12.8 21.8C12.7 21.8 12.7 21.7 12.6 21.7C12.5 21.7 12.4 21.6 12.4 21.6C12.3 21.6 12.3 21.5 12.2 21.5C12.1 21.5 12 21.5 11.9 21.5C11.8 21.5 11.8 21.5 11.7 21.5C11.6 21.5 11.5 21.5 11.5 21.5C11.4 21.5 11.3 21.5 11.2 21.5C11.1 21.5 11 21.6 11 21.6C10.9 21.6 10.9 21.6 10.8 21.7C10.7 21.7 10.7 21.8 10.6 21.8C10.5 21.8 10.5 21.9 10.4 21.9C10.1 22 10 22.1 10 22.1L9.9 22.2C9.8 22.3 9.7 22.4 9.7 22.5C9.6 22.6 9.5 22.8 9.4 23C9.3 23.1 9.3 23.3 9.3 23.4V23.5C9.3 23.7 9.2 23.8 9.2 24C9.2 24.2 9.2 24.3 9.3 24.5V24.6C9.3 24.7 9.4 24.9 9.4 25C9.5 25.2 9.6 25.3 9.7 25.5L9.8 25.6C9.9 25.7 9.9 25.7 10 25.8L11.3 27.1V26.5C11.5 26.5 11.6 26.6 11.8 26.6C11.9 26.6 12 26.6 12.1 26.6C12.2 26.6 12.2 26.6 12.3 26.6C13.3 26.4 14.1 25.5 14.3 24.5L17.1 27.3C17.2 27.4 17.3 27.4 17.5 27.4C17.7 27.4 17.8 27.3 17.9 27.3L22.1 23.1C22.4 22.8 22.8 22.7 23.2 22.7H38.4C38.5 22.7 38.7 22.6 38.8 22.6L43.9 17.5C44.5 16.9 45.4 16.9 46 17.5C46.3 17.8 46.4 18.2 46.4 18.6C46.4 19 46.2 19.4 46 19.7L40 25.1C39.7 25.4 39.3 25.5 38.9 25.5H30.9C30.6 25.5 30.4 25.7 30.4 26V35.5H23.4V26.8C23.4 26.6 23.3 26.4 23.1 26.3C22.9 26.2 22.7 26.3 22.6 26.4L18.4 30.6C17.8 31.2 16.8 31.2 16.3 30.6L12.2 26.5V28L15.6 31.4C16.5 32.3 18.2 32.3 19.1 31.4L22.5 28V36V37L9 50.4C8 51.4 8 53 9 53.9C10 54.9 11.6 54.9 12.5 53.9L25.9 40.5H26.4V47L20.1 53.3C19.6 53.8 19.4 54.4 19.4 55.1C19.4 55.8 19.7 56.4 20.1 56.9C20.6 57.4 21.2 57.6 21.9 57.6C22.6 57.6 23.2 57.3 23.7 56.9L30.8 49.8C31.3 49.3 31.5 48.7 31.5 48V36V26.5H39C39.7 26.5 40.3 26.2 40.8 25.8L46.5 20.1C47 19.6 47.2 19 47.2 18.3C47.2 17.6 46.9 17 46.5 16.5C45.4 15.6 43.8 15.6 42.8 16.6ZM12.1 25.4C11.9 25.5 11.8 25.5 11.6 25.5C11.4 25.5 11.3 25.5 11.1 25.4C10.8 25.3 10.6 25.1 10.4 24.9C10.4 24.8 10.3 24.8 10.3 24.7C10.3 24.6 10.3 24.6 10.2 24.5C10.2 24.5 10.2 24.5 10.2 24.4C10.2 24.3 10.2 24.2 10.2 24.1C10.2 24 10.2 23.9 10.2 23.8C10.2 23.8 10.2 23.8 10.2 23.7C10.2 23.6 10.2 23.5 10.3 23.5C10.4 23.3 10.5 23.2 10.6 23C10.7 22.9 10.9 22.8 11.1 22.7C11.1 22.7 11.1 22.7 11.2 22.7C11.4 22.6 11.5 22.6 11.7 22.6C11.9 22.6 12 22.6 12.2 22.7C12.4 22.8 12.5 22.9 12.7 23C13 23.3 13.1 23.6 13.1 24.1C13.1 24.7 12.7 25.2 12.1 25.4ZM30.4 48C30.4 48.4 30.2 48.8 30 49.1L22.9 56.2C22.3 56.8 21.3 56.8 20.8 56.2C20.5 55.9 20.4 55.5 20.4 55.1C20.4 54.7 20.6 54.3 20.8 54L27.3 47.5C27.4 47.4 27.4 47.3 27.4 47.1V40C27.4 39.7 27.2 39.5 26.9 39.5H25.7C25.6 39.5 25.4 39.6 25.3 39.6L11.8 53.2C11.2 53.8 10.3 53.8 9.7 53.2C9.1 52.6 9.1 51.7 9.7 51.1L23.3 37.5C23.4 37.4 23.4 37.3 23.4 37.1V36.4H30.4V48Z" fill="black"/>
<path d="M11.4 21.5C11.5 21.5 11.6 21.5 11.6 21.5C11.7 21.5 11.7 21.5 11.8 21.5C11.9 21.5 12 21.5 12.1 21.5V16.4C13.8 16.1 15.1 14.2 15.1 12C15.1 9.5 13.5 7.5 11.6 7.5C9.70001 7.5 8.10001 9.5 8.10001 12C8.10001 14.3 9.40001 16.1 11.1 16.4V21.5C11.2 21.5 11.3 21.5 11.4 21.5ZM9.10001 12C9.10001 10.1 10.2 8.5 11.6 8.5C13 8.5 14.1 10.1 14.1 12C14.1 13.9 13 15.5 11.6 15.5C10.2 15.5 9.10001 13.9 9.10001 12Z" fill="#FCB019"/>
<path d="M12.1 26.6V26.4C12 26.4 12 26.4 11.9 26.4C11.8 26.4 11.7 26.4 11.6 26.4C11.4 26.4 11.3 26.4 11.1 26.3V27V28C11.1 28.3 11.3 28.5 11.6 28.5C11.9 28.5 12.1 28.3 12.1 28V26.6Z" fill="#FCB019"/>
<path d="M26.9 20.5C28.8 20.5 30.4 18.9 30.4 17C30.4 15.1 28.8 13.5 26.9 13.5C25 13.5 23.4 15.1 23.4 17C23.4 18.9 25 20.5 26.9 20.5ZM26.9 14.5C28.3 14.5 29.4 15.6 29.4 17C29.4 18.4 28.3 19.5 26.9 19.5C25.5 19.5 24.4 18.4 24.4 17C24.4 15.6 25.5 14.5 26.9 14.5Z" fill="black"/>
</svg>
