<svg width="63" height="63" viewBox="0 0 63 63" fill="none" xmlns="http://www.w3.org/2000/svg">
<path d="M49.2 28C48.1 28 47.2 28.9 47.2 30C47.2 31.1 48.1 32 49.2 32C50.3 32 51.2 31.1 51.2 30C51.2 28.9 50.3 28 49.2 28ZM49.2 31C48.6 31 48.2 30.6 48.2 30C48.2 29.4 48.6 29 49.2 29C49.8 29 50.2 29.4 50.2 30C50.2 30.6 49.8 31 49.2 31Z" fill="#FCB019"/>
<path d="M29.6 12.2L31.7 10.1C31.9 9.90001 32.2 9.90001 32.4 10.1L33.1 10.8C33.3 11 33.3 11.3 33.1 11.5L31 13.6C30.6 14 30.1 14.5 29.7 14.9C30.1 14.9 30.5 15 30.9 15.1C31.2 14.8 31.5 14.6 31.7 14.3L33.8 12.2C34.4 11.6 34.4 10.7 33.8 10.1L33.1 9.40001C32.5 8.80001 31.6 8.80001 31 9.40001L28.9 11.5C25.2 15.2 21.6 19.2 18.2 23.3C18.5 23.4 18.8 23.5 19.1 23.8C22.4 19.7 25.9 15.8 29.6 12.2Z" fill="#EE2B2F"/>
<path d="M26 18.3C23.9 20.3 21.7 22.2 19.4 24L20.1 24.7C22.2 23 24.2 21.2 26.2 19.4C26.1 19.1 26 18.7 26 18.3Z" fill="#EE2B2F"/>
<path d="M41.2 44.5V36.6C41.7 36.1 41.9 35.5 41.9 34.9C41.9 34.2 41.6 33.6 41.2 33.1L40.3 32.2L39.8 31.7L32 23.9C30.7 22.6 28.4 22.6 27.1 23.9L23.2 27.8L20.2 24.8L19.4 24L19.2 23.8C19.1 23.7 19.1 23.7 19 23.6C18.7 23.4 18.4 23.2 18.1 23.1C17.3 22.9 16.3 23.1 15.7 23.7C15.3 24.3 15 25 15 25.6C15 26.2 15.3 26.9 15.7 27.4L21.4 33.1C21.9 33.6 22.5 33.8 23.2 33.8C23.9 33.8 24.5 33.6 25 33.1L28.2 29.9L34.6 36.3L19.9 50.8C19.2 51.5 19 52.6 19.4 53.5C19.8 54.5 20.7 55 21.7 55C22.4 55 23 54.7 23.5 54.3L36.3 41.5V45.5C36.3 46.2 36.6 46.8 37 47.3L44.1 54.4C44.6 54.9 45.2 55.1 45.9 55.1C46.6 55.1 47.2 54.9 47.7 54.4C48.7 53.4 48.7 51.8 47.7 50.9L41.2 44.5ZM44.7 53.7L37.6 46.6C37.3 46.3 37.2 45.9 37.2 45.5V40.5V39.8V39.1V37.7C37.2 37.6 37.1 37.4 37.1 37.3H37L36.9 37.2L35.9 36.2L36.3 35.8L36.8 35.3L38.6 33.5L39.1 33L39.5 32.6L39.7 32.8L40.6 33.7C40.7 33.8 40.8 33.9 40.9 34.1V34.2C41 34.3 41 34.5 41 34.6V34.7C41 34.9 41 35 40.9 35.2V35.3L40.8 35.4C40.7 35.5 40.7 35.6 40.6 35.7L40.4 36C40.3 36.1 40.3 36.2 40.3 36.4V36.9V37.6V44.7C40.3 44.8 40.4 45 40.4 45.1L46.9 51.6C47.5 52.2 47.5 53.1 46.9 53.7C46.3 54.3 45.3 54.3 44.7 53.7ZM20.3 53.2C20.1 52.8 20.1 52.1 20.6 51.6L35.2 37L36.2 38V40.2L22.7 53.7C22.4 54 22 54.1 21.6 54.1C20.9 54.1 20.5 53.6 20.3 53.2ZM29.9 28.1C30.1 27.9 30.1 27.6 29.9 27.4C29.7 27.2 29.5 27.2 29.3 27.3C29.3 27.3 29.2 27.3 29.2 27.4L28.1 28.5L27.7 28.9L27.3 29.3L24.1 32.5C23.5 33.1 22.6 33.1 22 32.5L16.3 26.8C16.2 26.4 16 26 16 25.6C16 25.2 16.2 24.8 16.4 24.5C16.7 24.2 17 24.1 17.4 24.1C17.8 24.1 18.1 24.2 18.4 24.4C18.4 24.4 18.5 24.4 18.5 24.5L18.6 24.6L19.3 25.3L22.7 28.7C22.9 28.9 23.2 28.9 23.4 28.7L25.9 26.2L26.5 25.6L27.6 24.5L27.7 24.4C28.2 23.9 28.8 23.7 29.5 23.7C30.2 23.7 30.8 24 31.3 24.4L38.7 31.8L35.2 35.3L28.8 28.9L29.9 28.1Z" fill="black"/>
<path d="M29.5 14.8C27.6 14.8 26 16.3 26 18.3C26 18.7 26.1 19.1 26.2 19.4C26.7 20.8 28 21.8 29.5 21.8C31.4 21.8 33 20.2 33 18.3C33 16.8 32.1 15.6 30.8 15.1C30.4 15 30 14.9 29.6 14.9C29.6 14.9 29.6 14.8 29.5 14.8ZM29.5 20.8C28.2 20.8 27.2 19.9 27 18.7C27 18.6 27 18.5 27 18.3C27 17.8 27.1 17.4 27.4 17C27.6 16.6 27.9 16.3 28.3 16.1C28.7 15.9 29.1 15.8 29.5 15.8C29.7 15.8 29.8 15.8 30 15.9C31.1 16.1 32 17.1 32 18.3C32 19.7 30.9 20.8 29.5 20.8Z" fill="black"/>
</svg>
